<svg width="173" height="44" viewBox="0 0 173 44" fill="none" xmlns="http://www.w3.org/2000/svg">
<g clip-path="url(#clip0_0_1175)">
<path d="M12.9747 18.7285H16.6834L3.75463 43.6516H0L12.9747 18.7285Z" fill="url(#paint0_linear_0_1175)"/>
<path d="M22.7287 18.7285H16.6834L3.75464 43.6516H9.74827L22.7287 18.7285Z" fill="url(#paint1_linear_0_1175)"/>
<path d="M17.8546 9.36436L35.7035 43.6517H41.2378L20.1338 4.9812L17.8546 9.36436Z" fill="#1F52FF"/>
<path d="M20.1338 4.98113L22.7287 0L45.4517 43.6517H41.2378L20.1338 4.98113Z" fill="url(#paint2_linear_0_1175)"/>
<path d="M3.75464 43.6516H9.62771C9.62771 43.6516 16.1553 28.1508 36.8516 27.3671L34.2165 22.3047C34.2165 22.3047 16.0864 23.2916 3.75464 43.6516Z" fill="url(#paint3_linear_0_1175)"/>
<path d="M0 43.6516H4.11631C4.11631 43.6516 14.6224 24.4237 34.3428 22.3047L32.6836 19.1233C32.6836 19.1233 13.6349 19.1872 0 43.6516Z" fill="url(#paint4_linear_0_1175)"/>
<path d="M49.2982 35.4311V19.2686H55.1885V35.5356C55.1885 40.8999 50.6071 44.0001 45.6469 44.0001C40.6866 44.0001 36.0709 40.8999 36.0709 35.5356V19.2686H41.9611V35.4311C41.9611 37.4166 43.8557 38.3919 45.6469 38.3919C47.4381 38.3919 49.2982 37.4166 49.2982 35.4311Z" fill="url(#paint5_linear_0_1175)"/>
<path d="M72.1302 42.7461V43.6517H65.241L61.1074 36.4761H57.904V43.6517H51.7381V19.2686H62.3131C71.7858 19.3034 73.5081 30.8331 67.4111 35.0131L72.1302 42.7461ZM62.3131 24.8419C60.8663 24.807 59.3507 24.8419 57.904 24.8419V30.9376H62.3131C65.6543 30.9376 65.8266 24.8767 62.3131 24.8419Z" fill="url(#paint6_linear_0_1175)"/>
<path d="M85.6331 40.5864H76.126L74.7137 43.6517H68.6856V42.7461L79.5361 18.9551H82.1885L93.0735 42.7461V43.6517H87.0454L85.6331 40.5864ZM80.8451 28.8477L78.1239 35.257H83.6352L80.8451 28.8477Z" fill="url(#paint7_linear_0_1175)"/>
<path d="M90.9091 24.8419V19.2686H108.821V24.8419H102.931V43.6517H96.8339V24.8419H90.9091Z" fill="black"/>
<path d="M173 43.6517H166.696V33.8636H159.256V43.6517H152.952V19.2686H159.256V28.1162H166.696V19.2686H173V43.6517Z" fill="black"/>
<path d="M140.213 18.7461C145.208 18.7461 150.616 21.4979 151.546 28.0117H145.483C144.622 25.5385 142.796 24.4239 140.213 24.4239C136.596 24.4239 134.219 27.1757 134.219 31.2163C134.219 34.8041 136.562 37.9391 140.213 37.974C142.831 37.974 144.932 36.6503 145.587 34.0378H151.649C150.754 40.9348 145.345 43.6518 140.213 43.6518C134.082 43.6866 127.881 39.5066 127.847 31.2163C127.881 22.9261 134.082 18.7461 140.213 18.7461Z" fill="black"/>
<path d="M126.549 24.8419H117.628V28.2903H125.826V33.8288H117.628V38.1133H126.859V43.6517H111.496V19.2686H126.549V24.8419Z" fill="black"/>
</g>
<defs>
<linearGradient id="paint0_linear_0_1175" x1="0" y1="31.1872" x2="16.6834" y2="31.1872" gradientUnits="userSpaceOnUse">
<stop stop-color="#0A41FF"/>
<stop offset="1" stop-color="#FC71FF"/>
</linearGradient>
<linearGradient id="paint1_linear_0_1175" x1="3.75464" y1="31.1872" x2="22.7287" y2="31.1872" gradientUnits="userSpaceOnUse">
<stop stop-color="#0A41FF"/>
<stop offset="1" stop-color="#FC71FF"/>
</linearGradient>
<linearGradient id="paint2_linear_0_1175" x1="20.1338" y1="21.8287" x2="45.4517" y2="21.8287" gradientUnits="userSpaceOnUse">
<stop stop-color="#0A41FF"/>
<stop offset="0.49" stop-color="#1F52FF"/>
<stop offset="1" stop-color="#FC71FF"/>
</linearGradient>
<linearGradient id="paint3_linear_0_1175" x1="3.75464" y1="32.981" x2="36.8516" y2="32.981" gradientUnits="userSpaceOnUse">
<stop stop-color="#0A41FF"/>
<stop offset="1" stop-color="#FC71FF"/>
</linearGradient>
<linearGradient id="paint4_linear_0_1175" x1="0" y1="31.3903" x2="34.3428" y2="31.3903" gradientUnits="userSpaceOnUse">
<stop stop-color="#1F52FF"/>
<stop offset="1" stop-color="#FC71FF"/>
</linearGradient>
<linearGradient id="paint5_linear_0_1175" x1="36.0709" y1="31.6343" x2="55.1827" y2="31.6343" gradientUnits="userSpaceOnUse">
<stop stop-color="#0A41FF"/>
<stop offset="0.49" stop-color="#1F52FF"/>
<stop offset="1" stop-color="#FC71FF"/>
</linearGradient>
<linearGradient id="paint6_linear_0_1175" x1="51.7381" y1="31.4601" x2="72.1302" y2="31.4601" gradientUnits="userSpaceOnUse">
<stop stop-color="#0A41FF"/>
<stop offset="0.49" stop-color="#1F52FF"/>
<stop offset="1" stop-color="#FC71FF"/>
</linearGradient>
<linearGradient id="paint7_linear_0_1175" x1="68.6856" y1="31.3034" x2="93.0735" y2="31.3034" gradientUnits="userSpaceOnUse">
<stop stop-color="#0A41FF"/>
<stop offset="0.49" stop-color="#1F52FF"/>
<stop offset="1" stop-color="#FC71FF"/>
</linearGradient>
<clipPath id="clip0_0_1175">
<rect width="173" height="44" fill="white"/>
</clipPath>
</defs>
</svg>
