<svg width="16" height="16" viewBox="0 0 16 16" fill="none" xmlns="http://www.w3.org/2000/svg">
<path d="M14.9751 12.431C14.9751 12.683 14.9191 12.942 14.8001 13.194C14.6811 13.446 14.5271 13.684 14.3241 13.908C13.9811 14.286 13.6031 14.559 13.1761 14.734C12.7561 14.909 12.3011 15 11.8111 15C11.0971 15 10.3341 14.832 9.52909 14.489C8.72409 14.146 7.91909 13.684 7.12109 13.103C6.31609 12.515 5.55309 11.864 4.82509 11.143C4.10409 10.415 3.45309 9.652 2.87209 8.854C2.29809 8.056 1.83609 7.258 1.50009 6.467C1.16409 5.669 0.996094 4.906 0.996094 4.178C0.996094 3.702 1.08009 3.247 1.24809 2.827C1.41609 2.4 1.68209 2.008 2.05309 1.658C2.50109 1.217 2.99109 1 3.50909 1C3.70509 1 3.90109 1.042 4.07609 1.126C4.25809 1.21 4.41909 1.336 4.54509 1.518L6.16909 3.807C6.29509 3.982 6.38609 4.143 6.44909 4.297C6.51209 4.444 6.54709 4.591 6.54709 4.724C6.54709 4.892 6.49809 5.06 6.40009 5.221C6.30909 5.382 6.17609 5.55 6.00809 5.718L5.47609 6.271C5.39909 6.348 5.36409 6.439 5.36409 6.551C5.36409 6.607 5.37109 6.656 5.38509 6.712C5.40609 6.768 5.42709 6.81 5.44109 6.852C5.56709 7.083 5.78409 7.384 6.09209 7.748C6.40709 8.112 6.74309 8.483 7.10709 8.854C7.48509 9.225 7.84909 9.568 8.22009 9.883C8.58409 10.191 8.88509 10.401 9.12309 10.527C9.15809 10.541 9.20009 10.562 9.24909 10.583C9.30509 10.604 9.36109 10.611 9.42409 10.611C9.54309 10.611 9.63409 10.569 9.71109 10.492L10.2431 9.967C10.4181 9.792 10.5861 9.659 10.7471 9.575C10.9081 9.477 11.0691 9.428 11.2441 9.428C11.3771 9.428 11.5171 9.456 11.6711 9.519C11.8251 9.582 11.9861 9.673 12.1611 9.792L14.4781 11.437C14.6601 11.563 14.7861 11.71 14.8631 11.885C14.9331 12.06 14.9751 12.235 14.9751 12.431Z" stroke="white" stroke-width="1.8" stroke-miterlimit="10"/>
</svg>
