<svg width="121" height="121" viewBox="0 0 121 121" fill="none"
    xmlns="http://www.w3.org/2000/svg">
    <rect width="121" height="121" rx="20" fill="#DEEFFF"/>
    <path d="M70.2498 94.1459H51.7498C35.0073 94.1459 27.854 86.9926 27.854 70.2501V51.7501C27.854 35.0076 35.0073 27.8542 51.7498 27.8542H70.2498C86.9923 27.8542 94.1457 35.0076 94.1457 51.7501V70.2501C94.1457 86.9926 86.9923 94.1459 70.2498 94.1459ZM51.7498 32.4792C37.5357 32.4792 32.479 37.5359 32.479 51.7501V70.2501C32.479 84.4643 37.5357 89.5209 51.7498 89.5209H70.2498C84.464 89.5209 89.5207 84.4643 89.5207 70.2501V51.7501C89.5207 37.5359 84.464 32.4792 70.2498 32.4792H51.7498Z" fill="#0098DA"/>
    <path d="M69.4687 65.79C69.6273 64.4816 69.7463 63.1731 69.7463 61.825C69.7463 60.4769 69.6273 59.1685 69.4687 57.86H76.1696C76.4868 59.1288 76.685 60.4571 76.685 61.825C76.685 63.1929 76.4868 64.5212 76.1696 65.79M65.9597 76.8127C67.1492 74.6121 68.0611 72.2331 68.6955 69.755H74.5439C72.6232 73.0624 69.576 75.5677 65.9597 76.8127ZM65.4641 65.79H56.186C55.9877 64.4816 55.8688 63.1731 55.8688 61.825C55.8688 60.4769 55.9877 59.1486 56.186 57.86H65.4641C65.6425 59.1486 65.7812 60.4769 65.7812 61.825C65.7812 63.1731 65.6425 64.4816 65.4641 65.79ZM60.825 77.6057C59.1795 75.2267 57.8513 72.59 57.0384 69.755H64.6116C63.7987 72.59 62.4705 75.2267 60.825 77.6057ZM52.895 53.895H47.1061C49.007 50.5787 52.052 48.0694 55.6705 46.8373C54.481 49.0379 53.5889 51.4169 52.895 53.895ZM47.1061 69.755H52.895C53.5889 72.2331 54.481 74.6121 55.6705 76.8127C52.0596 75.567 49.0189 73.0613 47.1061 69.755ZM45.4805 65.79C45.1633 64.5212 44.965 63.1929 44.965 61.825C44.965 60.4571 45.1633 59.1288 45.4805 57.86H52.1813C52.0227 59.1685 51.9038 60.4769 51.9038 61.825C51.9038 63.1731 52.0227 64.4816 52.1813 65.79M60.825 46.0245C62.4705 48.4035 63.7987 51.06 64.6116 53.895H57.0384C57.8513 51.06 59.1795 48.4035 60.825 46.0245ZM74.5439 53.895H68.6955C68.075 51.4396 67.1563 49.0694 65.9597 46.8373C69.6075 48.0863 72.6407 50.6041 74.5439 53.895ZM60.825 42C49.8618 42 41 50.9213 41 61.825C41 67.0829 43.0887 72.1255 46.8066 75.8434C48.6475 77.6843 50.833 79.1446 53.2383 80.1409C55.6436 81.1372 58.2215 81.65 60.825 81.65C66.0829 81.65 71.1255 79.5613 74.8434 75.8434C78.5613 72.1255 80.65 67.0829 80.65 61.825C80.65 59.2215 80.1372 56.6436 79.1409 54.2383C78.1446 51.833 76.6843 49.6475 74.8434 47.8066C73.0025 45.9657 70.817 44.5054 68.4117 43.5091C66.0064 42.5128 63.4285 42 60.825 42Z" fill="#0098DA"/>
</svg>
